HIERARCHY
ROOT SpineBase
{
  OFFSET 0.000000 0.000000 0.000000
  CHANNELS 6 Xposition Yposition Zposition Zrotation Xrotation Yrotation
  JOINT SpineMid
  {
    OFFSET 0.000000 29.967179 0.000000
    CHANNELS 3 Zrotation Xrotation Yrotation
    JOINT SpineShoulder
    {
      OFFSET -0.031864 22.418235 -0.785061
      CHANNELS 3 Zrotation Xrotation Yrotation
      JOINT Neck
      {
        OFFSET 0.024824 7.455056 -0.584299
        CHANNELS 3 Zrotation Xrotation Yrotation
        JOINT Head
        {
          OFFSET -4.035483 13.547849 -0.747738
          CHANNELS 3 Zrotation Xrotation Yrotation
          End Site
          {
            OFFSET 0 0 0
          }
        }
      }
      JOINT ShoulderLeft
      {
        OFFSET -16.378081 -4.694594 4.515052
        CHANNELS 3 Zrotation Xrotation Yrotation
        JOINT ElbowLeft
        {
          OFFSET -1.285631 -24.562178 1.038336
          CHANNELS 3 Zrotation Xrotation Yrotation
          JOINT WristLeft
          {
            OFFSET 1.951453 -22.635694 -7.656000
            CHANNELS 3 Zrotation Xrotation Yrotation
            JOINT HandLeft
            {
              OFFSET 0.720955 -3.680420 -0.577048
              CHANNELS 3 Zrotation Xrotation Yrotation
              JOINT HandTipLeft
              {
                OFFSET 0.404469 -5.530672 -0.849662
                CHANNELS 3 Zrotation Xrotation Yrotation
                End Site
                {
                  OFFSET 0 0 0
                }
              }
              JOINT ThumbLeft
              {
                OFFSET 3.741624 0.767932 -2.152725
                CHANNELS 3 Zrotation Xrotation Yrotation
                End Site
                {
                  OFFSET 0 0 0
                }
              }
            }
          }
        }
      }
      JOINT ShoulderRight
      {
        OFFSET 15.279451 -2.512682 -6.689358
        CHANNELS 3 Zrotation Xrotation Yrotation
        JOINT ElbowRight
        {
          OFFSET 5.237156 -24.163071 -1.119382
          CHANNELS 3 Zrotation Xrotation Yrotation
          JOINT WristRight
          {
            OFFSET -1.765079 -20.559655 -6.099857
            CHANNELS 3 Zrotation Xrotation Yrotation
            JOINT HandRight
            {
              OFFSET -1.596045 -5.550717 -1.215714
              CHANNELS 3 Zrotation Xrotation Yrotation
              JOINT HandTipRight
              {
                OFFSET -1.384457 -6.456182 -1.910335
                CHANNELS 3 Zrotation Xrotation Yrotation
                End Site
                {
                  OFFSET 0 0 0
                }
              }
              JOINT ThumbRight
              {
                OFFSET -2.984054 1.463969 -1.048051
                CHANNELS 3 Zrotation Xrotation Yrotation
                End Site
                {
                  OFFSET 0 0 0
                }
              }
            }
          }
        }
      }
    }
  }
  JOINT HipLeft
  {
    OFFSET -6.632394 0.353295 -1.099916
    CHANNELS 3 Zrotation Xrotation Yrotation
    JOINT KneeLeft
    {
      OFFSET 4.882656 -26.237053 5.059507
      CHANNELS 3 Zrotation Xrotation Yrotation
      JOINT AnkleLeft
      {
        OFFSET 4.579928 -31.899532 5.960469
        CHANNELS 3 Zrotation Xrotation Yrotation
        JOINT FootLeft
        {
          OFFSET 5.213018 -6.241516 -5.532905
          CHANNELS 3 Zrotation Xrotation Yrotation
          End Site
          {
            OFFSET 0 0 0
          }
        }
      }
    }
  }
  JOINT HipRight
  {
    OFFSET 7.279983 1.515234 -5.513188
    CHANNELS 3 Zrotation Xrotation Yrotation
    JOINT KneeRight
    {
      OFFSET 8.820502 -29.786337 3.888291
      CHANNELS 3 Zrotation Xrotation Yrotation
      JOINT AnkleRight
      {
        OFFSET 1.667068 -29.897244 6.513762
        CHANNELS 3 Zrotation Xrotation Yrotation
        JOINT FootRight
        {
          OFFSET -2.947663 -4.425962 -10.501447
          CHANNELS 3 Zrotation Xrotation Yrotation
          End Site
          {
            OFFSET 0 0 0
          }
        }
      }
    }
  }
}
MOTION
Frames: 6
Frame Time: 0.033333
-33.287621 67.365440 343.235220 0.542017 -1.406201 22.064229 -0.105303 0.260982 -22.045482 0.027095 0.080258 0.022023 -3.141703 -5.717321 -2.342635 0.000000 0.000000 0.000000 -0.283652 -7.223703 0.415724 -3.734337 4.564468 0.905434 -7.618105 -32.976875 -10.505635 -8.166936 30.710584 14.066175 0.000000 0.000000 0.000000 0.000000 0.000000 0.000000 -4.028043 32.756987 8.217073 -38.511377 27.289270 0.085550 2.471659 10.431290 -11.644927 21.186554 13.271720 13.035291 0.000000 0.000000 0.000000 0.000000 0.000000 0.000000 -1.886460 5.360991 -22.032139 1.358385 -1.462792 -0.048997 9.122405 2.183213 -3.106635 0.000000 0.000000 0.000000 -1.413577 4.443521 -21.651350 4.114085 -1.071961 0.193961 8.106080 -36.537367 19.853182 0.000000 0.000000 0.000000
-33.281183 67.368795 343.258081 0.564761 -1.397151 22.694850 -0.120983 0.243809 -22.675243 0.028614 0.063585 0.022845 -3.303453 -5.646785 -2.344446 0.000000 0.000000 0.000000 -0.172392 -7.317918 0.433451 -3.794346 5.034033 0.921509 -10.202892 -33.876969 -11.160443 -3.856314 32.776558 11.974155 0.000000 0.000000 0.000000 0.000000 0.000000 0.000000 -3.443738 32.740638 7.989896 -39.209474 28.696181 0.531772 -0.053959 12.889423 -12.063899 26.510983 13.047714 15.332598 0.000000 0.000000 0.000000 0.000000 0.000000 0.000000 -2.011829 5.615675 -22.668012 1.709864 -1.663214 -0.007829 9.612104 2.083623 -3.720035 0.000000 0.000000 0.000000 -1.400092 4.419431 -22.294638 4.037602 -0.909965 0.190708 7.713158 -36.380359 22.764063 0.000000 0.000000 0.000000
-33.281327 67.375028 343.259773 0.578975 -1.387844 23.324734 -0.131984 0.226779 -23.304565 0.034422 0.049316 0.023770 -3.425162 -5.654931 -2.366363 0.000000 0.000000 0.000000 -0.103774 -7.539728 0.454004 -3.810928 5.635641 0.937943 -10.874545 -30.990708 -10.052756 1.752482 29.351016 7.556000 0.000000 0.000000 0.000000 0.000000 0.000000 0.000000 -0.844870 30.669628 6.569392 -42.573966 32.095477 3.047261 -7.310040 11.448490 -13.921204 28.853153 10.761010 16.287167 0.000000 0.000000 0.000000 0.000000 0.000000 0.000000 -2.237500 5.692454 -23.345163 2.247328 -1.392395 0.156080 8.797302 1.235480 -3.788891 0.000000 0.000000 0.000000 -1.398908 4.319880 -22.958012 3.905420 -0.641378 0.194942 11.048183 -41.139325 27.941247 0.000000 0.000000 0.000000
-33.291115 67.388999 343.219965 0.572090 -1.370589 23.960706 -0.137770 0.206784 -23.940851 0.040150 0.035274 0.024028 -3.454543 -5.631880 -2.367203 0.000000 0.000000 0.000000 -0.059575 -7.747522 0.470802 -3.793505 6.199201 0.952596 -11.244791 -30.111834 -9.702347 2.918200 29.313649 6.783949 0.000000 0.000000 0.000000 0.000000 0.000000 0.000000 -0.573888 30.706711 6.482083 -42.750806 32.291034 3.047293 -11.080664 5.326613 -15.922630 28.973302 13.338257 14.538259 0.000000 0.000000 0.000000 0.000000 0.000000 0.000000 -2.508947 5.688954 -24.049655 2.976550 -0.901950 0.395925 6.698908 -0.264527 -3.410368 0.000000 0.000000 0.000000 -1.437743 4.131541 -23.655764 3.878557 -0.329979 0.243626 10.646929 -40.685391 27.677535 0.000000 0.000000 0.000000
-33.313990 67.407977 343.158160 0.546901 -1.341843 24.452701 -0.144541 0.186210 -24.434056 0.044249 0.022031 0.023338 -3.441288 -5.408209 -2.295721 0.000000 0.000000 0.000000 -0.102568 -7.950088 0.477377 -3.699386 6.623323 0.962749 -11.552871 -29.161935 -9.337760 5.709606 29.060501 4.936840 0.000000 0.000000 0.000000 0.000000 0.000000 0.000000 -1.926508 31.531026 7.143993 -40.512222 30.661112 1.793415 -9.725094 -4.033950 -16.947674 22.058075 15.943245 10.975426 0.000000 0.000000 0.000000 0.000000 0.000000 0.000000 -2.698065 5.636319 -24.598114 3.322111 -0.585570 0.521365 4.814573 -1.651627 -2.990599 0.000000 0.000000 0.000000 -1.462127 3.986731 -24.192045 3.989581 -0.249128 0.300597 4.555188 -31.342358 20.906683 0.000000 0.000000 0.000000
-33.348123 67.427194 343.089573 0.496644 -1.315948 24.895924 -0.144189 0.170933 -24.879537 0.045938 0.010470 0.021567 -3.292980 -5.290184 -2.244302 0.000000 0.000000 0.000000 -0.266679 -8.237169 0.474595 -3.477851 7.105908 0.973104 -10.706724 -26.738692 -8.307861 5.527921 24.273232 4.267712 0.000000 0.000000 0.000000 0.000000 0.000000 0.000000 -6.688100 34.467725 9.673688 -34.412857 25.829169 -1.549621 -1.051667 -8.830091 -14.155769 9.450958 14.461237 8.296305 0.000000 0.000000 0.000000 0.000000 0.000000 0.000000 -2.808742 5.592771 -25.085287 3.705157 -0.327892 0.643726 3.525563 -2.606194 -2.832288 0.000000 0.000000 0.000000 -1.504809 3.871715 -24.678668 4.223104 -0.240132 0.374431 1.615685 -24.422600 15.507295 0.000000 0.000000 0.000000
